<svg width="36" height="36" viewBox="0 0 36 36" fill="none" xmlns="http://www.w3.org/2000/svg">
<path fill-rule="evenodd" clip-rule="evenodd" d="M33.0049 14L22.6429 12.5389L18 3L13.3364 12.5389L3.00488 14L10.5 21.4325L8.71894 32L18 27L27.313 32L25.5 21.4325L33.0049 14Z" fill="#FDDD4B"/>
<path fill-rule="evenodd" clip-rule="evenodd" d="M25.5 21.4325L33.0049 14L22.6429 12.5389L18 3L13.3364 12.5389L3.00488 14L10.5 21.4325L8.71894 32L18 27L27.313 32L25.5 21.4325ZM21.9766 13.4549L30.8682 14.7086L24.4263 21.0883L25.981 30.1498L17.9992 25.8646L10.0449 30.1498L11.5723 21.0874L5.13916 14.7081L14.0018 13.4548L17.998 5.28085L21.9766 13.4549Z" fill="#FACF32"/>
<path d="M22 19.5C22 21.9853 20.2091 24 18 24C15.7909 24 14 21.9853 14 19.5C14 17.0147 15.7909 15 18 15C20.2091 15 22 17.0147 22 19.5Z" fill="#F68712"/>
<path d="M12 14H23V20H17.5H12V14Z" fill="#FDDD4B"/>
<circle cx="14.5" cy="16.5" r="1.5" fill="#F68712"/>
<circle cx="21.5" cy="16.5" r="1.5" fill="#F68712"/>
</svg>
