<svg width="84" height="79" viewBox="0 0 84 79" fill="none" xmlns="http://www.w3.org/2000/svg">
<path d="M41.9702 65.5093L16.0737 79L21.0149 50.428L0 30.1626L29.0517 25.9799L41.9702 0L54.9483 25.9799L84 30.1626L62.9851 50.428L67.9263 79L41.9702 65.5093Z" fill="#F4DB6B"/>
<path d="M31.0752 46.481C31.0752 52.431 35.9568 57.2617 41.9696 57.2617C47.9824 57.2617 52.864 52.431 52.864 46.481H31.0752Z" fill="#E98B3E"/>
<path d="M35.66 37.4088C35.66 39.1762 34.2312 40.59 32.4452 40.59C30.6592 40.59 29.2305 39.1762 29.2305 37.4088C29.2305 35.6415 30.6592 34.2276 32.4452 34.2276C34.2312 34.2276 35.66 35.6415 35.66 37.4088Z" fill="#E98B3E"/>
<path d="M54.7703 37.4088C54.7703 39.1762 53.3415 40.59 51.5556 40.59C49.7696 40.59 48.3408 39.1762 48.3408 37.4088C48.3408 35.6415 49.7696 34.2276 51.5556 34.2276C53.3415 34.2276 54.7703 35.6415 54.7703 37.4088Z" fill="#E98B3E"/>
<path d="M41.9702 0L29.0517 25.9799L0 30.1626L33.5166 31.0462L41.9702 0Z" fill="#F6D15A"/>
<path d="M16.0742 79L41.9707 65.5093L67.9268 79L41.9707 58.6167L16.0742 79Z" fill="#F6D15A"/>
</svg>
